<svg width="33" height="32" viewBox="0 0 33 32" fill="none" xmlns="http://www.w3.org/2000/svg">
<path d="M16.0647 9.6298C14.8967 9.6298 13.0887 8.30179 11.1847 8.34979C8.67267 8.38179 6.36867 9.80578 5.07267 12.0618C2.46467 16.5898 4.40067 23.2778 6.94467 26.9578C8.19267 28.7498 9.66467 30.7658 11.6167 30.7018C13.4887 30.6218 14.1927 29.4858 16.4647 29.4858C18.7207 29.4858 19.3607 30.7018 21.3447 30.6538C23.3607 30.6218 24.6407 28.8298 25.8727 27.0218C27.2967 24.9418 27.8887 22.9258 27.9207 22.8138C27.8727 22.7978 24.0007 21.3098 23.9527 16.8298C23.9207 13.0858 27.0087 11.2938 27.1527 11.2138C25.3927 8.63779 22.6887 8.34979 21.7447 8.28579C19.2807 8.09379 17.2167 9.6298 16.0647 9.6298ZM20.2247 5.85379C21.2647 4.60579 21.9527 2.86179 21.7607 1.13379C20.2727 1.19779 18.4807 2.12579 17.4087 3.37379C16.4487 4.47779 15.6167 6.25379 15.8407 7.94979C17.4887 8.07779 19.1847 7.10179 20.2247 5.85379Z" fill="white"/>
</svg>
