<svg width="48" height="48" viewBox="0 0 48 48" fill="none" xmlns="http://www.w3.org/2000/svg">
<path d="M28.3412 41.781C36.7072 41.225 43.3712 34.4664 43.9196 25.9818C44.0268 24.3214 44.0268 22.6018 43.9196 20.9414C43.3712 12.4568 36.7072 5.69826 28.3412 5.14214C25.487 4.95242 22.5072 4.95282 19.6588 5.14214C11.2928 5.69826 4.62882 12.4568 4.08048 20.9414C3.97318 22.6018 3.97318 24.3214 4.08048 25.9818C4.28019 29.072 5.64685 31.9332 7.25581 34.3492C8.19001 36.0406 7.57348 38.1516 6.60041 39.9956C5.89881 41.3252 5.54801 41.99 5.82967 42.4702C6.11135 42.9504 6.74051 42.9658 7.99885 42.9964C10.4873 43.057 12.1654 42.3514 13.4974 41.3692C14.2528 40.8122 14.6305 40.5336 14.8909 40.5016C15.1512 40.4696 15.6635 40.6806 16.688 41.1026C17.6088 41.4818 18.6779 41.7158 19.6588 41.781C22.5072 41.9704 25.487 41.9708 28.3412 41.781Z" stroke="white" stroke-width="3" stroke-linejoin="round"/>
<path d="M23.9906 24H24.0084M31.9816 24H31.9996M15.9995 24H16.0175" stroke="white" stroke-width="3" stroke-linecap="round" stroke-linejoin="round"/>
</svg>
