<svg width="48" height="48" viewBox="0 0 48 48" fill="none" xmlns="http://www.w3.org/2000/svg">
<path fill-rule="evenodd" clip-rule="evenodd" d="M11.4652 4.08601C13.8999 1.66517 17.9087 2.09608 19.9473 4.81925L22.4693 8.18805C24.128 10.4038 23.9817 13.5006 22.0127 15.4585L21.5351 15.9333C21.5143 15.9939 21.4637 16.1843 21.5198 16.5462C21.6463 17.3612 22.3268 19.09 25.1839 21.9308C28.0399 24.7706 29.781 25.4505 30.6075 25.5773C30.9821 25.6348 31.178 25.5812 31.2387 25.5601L32.0547 24.7487C33.8051 23.0082 36.4948 22.6829 38.662 23.861L42.483 25.9381C45.755 27.7168 46.5816 32.1642 43.901 34.8296L41.0599 37.6546C40.1647 38.5447 38.9609 39.2869 37.4918 39.4238C33.8737 39.7611 25.4373 39.3307 16.5731 30.5168C8.29723 22.288 6.70911 15.112 6.50817 11.5763L8.00576 11.4912L6.50817 11.5763C6.40657 9.78852 7.2514 8.27592 8.32604 7.20739L11.4652 4.08601ZM17.5457 6.61713C16.5324 5.26364 14.6439 5.15603 13.5805 6.21336L10.4413 9.33474C9.78147 9.99083 9.464 10.7139 9.50334 11.4061C9.66299 14.2153 10.9456 20.6907 18.6883 28.3895C26.8113 36.4663 34.3136 36.7071 37.2133 36.4368C37.8058 36.3816 38.3949 36.0738 38.9446 35.5272L41.7857 32.7023C42.9406 31.5539 42.6859 29.463 41.0502 28.5739L37.2292 26.4967C36.1741 25.9231 34.938 26.1124 34.1699 26.876L33.2591 27.7818L32.2014 26.7181C33.2591 27.7818 33.2576 27.7832 33.2562 27.7846L33.2532 27.7875L33.2472 27.7934L33.2342 27.8059L33.2049 27.8332C33.1838 27.8524 33.1598 27.8734 33.1326 27.8959C33.0783 27.9409 33.0115 27.9918 32.9316 28.0453C32.7715 28.1526 32.5601 28.2693 32.2944 28.3683C31.7526 28.5701 31.0383 28.6785 30.1527 28.5426C28.4191 28.2767 26.1226 27.0948 23.0686 24.0582C20.0156 21.0225 18.8238 18.7367 18.5553 17.0061C18.418 16.1212 18.5275 15.4066 18.7318 14.8645C18.8319 14.5988 18.9498 14.3876 19.0581 14.2278C19.1121 14.1481 19.1635 14.0815 19.2088 14.0274C19.2315 14.0003 19.2527 13.9763 19.272 13.9554L19.2994 13.9262L19.312 13.9133L19.318 13.9073L19.3209 13.9043C19.3223 13.9029 19.3238 13.9015 20.3814 14.9652L19.3238 13.9015L19.8974 13.3311C20.7546 12.4788 20.8747 11.0639 20.0677 9.98594L17.5457 6.61713Z" fill="white"/>
</svg>
