<svg width="32" height="32" viewBox="0 0 32 32" fill="none" xmlns="http://www.w3.org/2000/svg">
<path d="M4.81312 2.41895L18.3908 16.0003L4.81459 29.5822C4.55717 29.4734 4.33171 29.283 4.18089 29.0226C4.06336 28.8195 4.00146 28.5891 4.00146 28.3545V3.64637C4.00146 3.09512 4.336 2.622 4.81312 2.41895ZM19.3335 16.943L22.4028 20.0123L7.82013 28.4563L19.3335 16.943ZM23.5988 12.6789L27.3416 14.8466C27.979 15.2155 28.1966 16.0313 27.8275 16.6685C27.7108 16.8701 27.5434 17.0377 27.3416 17.1543L23.5975 19.3217L20.2762 16.0003L23.5988 12.6789ZM7.82013 3.54428L22.4042 11.9869L19.3335 15.0577L7.82013 3.54428Z" fill="white"/>
</svg>
