<svg width="48" height="48" viewBox="0 0 48 48" fill="none" xmlns="http://www.w3.org/2000/svg">
<g id="Co-create &#38; Grow">
<path id="Vector" d="M23.9966 4C18.2977 4 14.6025 8.03798 10.2323 9.5098C8.45536 10.1083 7.5669 10.4075 7.20732 10.8293C6.84776 11.2511 6.74248 11.8675 6.5319 13.1003C4.2785 26.292 9.2038 38.488 20.95 43.235C22.212 43.745 22.8432 44 24.0028 44C25.1624 44 25.7934 43.745 27.0554 43.235C38.801 38.4878 43.7216 26.292 41.4676 13.1003C41.2568 11.8673 41.1516 11.2508 40.7918 10.829C40.4322 10.4072 39.5438 10.1081 37.767 9.50998C33.3952 8.0383 29.6958 4 23.9966 4Z" stroke="white" stroke-width="3" stroke-linecap="round" stroke-linejoin="round"/>
<path id="Vector_2" d="M16.258 22.2624L24.256 12.3812C24.8816 11.6084 26.054 12.0894 26.054 13.1188V20.767C26.054 21.3836 26.5138 21.8834 27.081 21.8834H30.971C31.8548 21.8834 32.3258 23.0164 31.742 23.7376L23.744 33.6188C23.1184 34.3916 21.946 33.9106 21.946 32.8812V25.233C21.946 24.6164 21.4862 24.1166 20.919 24.1166H17.029C16.1453 24.1166 15.6742 22.9836 16.258 22.2624Z" stroke="white" stroke-width="3" stroke-linecap="round" stroke-linejoin="round"/>
</g>
</svg>
