<svg width="20" height="20" viewBox="0 0 20 20" fill="none" xmlns="http://www.w3.org/2000/svg">
<g id="Handshake">
<path id="Vector" d="M9.05313 16.9531C9.03578 17.0203 8.99658 17.0798 8.9417 17.1222C8.88682 17.1646 8.81937 17.1876 8.75 17.1875C8.72367 17.1876 8.69743 17.1845 8.67188 17.1781L6.17188 16.5531C6.1371 16.5445 6.10407 16.53 6.07422 16.5102L4.19922 15.2602C4.16505 15.2374 4.13571 15.2081 4.11286 15.174C4.09002 15.1399 4.07411 15.1016 4.06606 15.0613C4.05801 15.0211 4.05796 14.9796 4.06593 14.9393C4.0739 14.899 4.08972 14.8607 4.1125 14.8266C4.1585 14.7576 4.23002 14.7097 4.31134 14.6934C4.3516 14.6853 4.39305 14.6853 4.43333 14.6933C4.47361 14.7012 4.51193 14.7171 4.54609 14.7398L6.37578 15.9601L8.82812 16.5719C8.86797 16.5821 8.90541 16.6 8.9383 16.6247C8.97118 16.6494 8.99887 16.6804 9.01977 16.7158C9.04068 16.7512 9.05438 16.7904 9.06011 16.8311C9.06583 16.8719 9.06346 16.9133 9.05313 16.9531ZM19.4258 9.39453C19.3874 9.51132 19.3262 9.61932 19.2457 9.71226C19.1653 9.8052 19.0671 9.88123 18.957 9.93593L17.0617 10.8844L12.7227 15.2234C12.6841 15.2609 12.6365 15.2878 12.5845 15.3015C12.5325 15.3151 12.4778 15.3152 12.4258 15.3016L7.42578 14.0516C7.38748 14.0423 7.35137 14.0256 7.31953 14.0023L2.96328 10.8937L1.04453 9.93359C0.934389 9.87855 0.836165 9.80236 0.755471 9.70936C0.674777 9.61636 0.613192 9.50838 0.574234 9.39158C0.535276 9.27478 0.519708 9.15145 0.528419 9.02863C0.537129 8.90581 0.569948 8.78591 0.625 8.67578L2.56563 4.79453C2.62066 4.68438 2.69685 4.58616 2.78985 4.50547C2.88285 4.42477 2.99083 4.36319 3.10763 4.32423C3.22444 4.28527 3.34777 4.2697 3.47059 4.27841C3.5934 4.28712 3.7133 4.31994 3.82344 4.37499L5.65625 5.2914L9.91406 4.07421C9.97029 4.0586 10.0297 4.0586 10.0859 4.07421L14.3438 5.2914L16.1766 4.37499C16.2867 4.31994 16.4066 4.28712 16.5294 4.27841C16.6522 4.2697 16.7756 4.28527 16.8924 4.32423C17.0092 4.36319 17.1172 4.42477 17.2101 4.50547C17.3031 4.58616 17.3793 4.68438 17.4344 4.79453L19.375 8.67656C19.4304 8.78653 19.4635 8.90642 19.4722 9.02927C19.4809 9.15212 19.4651 9.27548 19.4258 9.39218V9.39453ZM1.32344 9.37499L2.98516 10.2055L5.20547 5.76484L3.54453 4.93437C3.50785 4.91595 3.46791 4.90494 3.42697 4.90196C3.38604 4.89898 3.34492 4.90409 3.30596 4.917C3.267 4.92992 3.23097 4.95038 3.19992 4.97722C3.16887 5.00406 3.14341 5.03675 3.125 5.07343L1.18438 8.95546C1.16596 8.99214 1.15494 9.03209 1.15196 9.07302C1.14898 9.11396 1.1541 9.15508 1.16701 9.19403C1.17992 9.23299 1.20038 9.26902 1.22722 9.30007C1.25406 9.33112 1.28676 9.35658 1.32344 9.37499ZM15.1562 11.9008L12.5172 9.78671C11.0695 11.0961 9.175 11.3109 7.62187 10.3187C7.5032 10.2435 7.40295 10.1425 7.32855 10.0233C7.25415 9.90413 7.2075 9.76972 7.19204 9.63005C7.17659 9.49038 7.19273 9.34903 7.23928 9.21644C7.28582 9.08385 7.36158 8.96342 7.46094 8.86406L11.0312 5.40078C11.0898 5.3439 11.1684 5.31221 11.25 5.31249H12.1438L10 4.69999L5.84297 5.88749L3.52422 10.5258L7.63359 13.4609L12.4039 14.6539L15.1562 11.9008ZM16.4937 10.5633L14.182 5.93749H11.3766L7.90078 9.30937C7.86841 9.34181 7.8438 9.38114 7.82878 9.42444C7.81377 9.46773 7.80873 9.51386 7.81406 9.55937C7.81905 9.60677 7.83462 9.65244 7.85964 9.69301C7.88466 9.73358 7.91848 9.76801 7.95859 9.79374C9.04844 10.4898 10.7555 10.6875 12.2781 9.15312C12.3325 9.09841 12.4052 9.06575 12.4822 9.06142C12.5592 9.0571 12.6351 9.08141 12.6953 9.12968L15.6023 11.4578L16.4937 10.5633ZM18.8148 8.95546L16.875 5.07343C16.8566 5.03675 16.8311 5.00406 16.8001 4.97722C16.769 4.95038 16.733 4.92992 16.694 4.917C16.6551 4.90409 16.614 4.89898 16.573 4.90196C16.5321 4.90494 16.4921 4.91595 16.4555 4.93437L14.7945 5.76484L17.0148 10.2055L18.6766 9.37499C18.7132 9.35658 18.7459 9.33112 18.7728 9.30007C18.7996 9.26902 18.8201 9.23299 18.833 9.19403C18.8459 9.15508 18.851 9.11396 18.848 9.07302C18.8451 9.03209 18.834 8.99214 18.8156 8.95546H18.8148Z" fill="white"/>
</g>
</svg>
