<svg width="20" height="20" viewBox="0 0 20 20" fill="none" xmlns="http://www.w3.org/2000/svg">
<g id="Message">
<path id="Vector" d="M18.3333 9.63924C18.3333 14.0419 14.6018 17.6115 9.99999 17.6115C9.45891 17.6122 8.91932 17.5622 8.38782 17.4624C8.00526 17.3905 7.81397 17.3546 7.68043 17.375C7.54688 17.3954 7.35764 17.496 6.97915 17.6973C5.90844 18.2667 4.65995 18.4678 3.45925 18.2445C3.91561 17.6832 4.22728 17.0097 4.36481 16.2877C4.44814 15.846 4.24166 15.417 3.9324 15.1029C2.52776 13.6766 1.66666 11.7546 1.66666 9.63924C1.66666 5.23663 5.39814 1.66699 9.99999 1.66699C14.6018 1.66699 18.3333 5.23663 18.3333 9.63924Z" stroke="white" stroke-width="1.25" stroke-linejoin="round"/>
<path id="Vector_2" d="M9.99624 10H10.0037M13.3258 10H13.3333M6.66666 10H6.67413" stroke="white" stroke-width="1.25" stroke-linecap="round" stroke-linejoin="round"/>
</g>
</svg>
