<svg width="16" height="16" viewBox="0 0 16 16" fill="none" xmlns="http://www.w3.org/2000/svg">
<g id="Singer">
<path id="Vector" d="M4.33333 14.6667C5.622 14.6667 6.66667 13.622 6.66667 12.3333C6.66667 11.0447 5.622 10 4.33333 10C3.04467 10 2 11.0447 2 12.3333C2 13.622 3.04467 14.6667 4.33333 14.6667Z" stroke="#D0D9F9"/>
<path id="Vector_2" d="M12 12.6665C13.1046 12.6665 14 11.7711 14 10.6665C14 9.56193 13.1046 8.6665 12 8.6665C10.8954 8.6665 10 9.56193 10 10.6665C10 11.7711 10.8954 12.6665 12 12.6665Z" stroke="#D0D9F9"/>
<path id="Vector_3" d="M6.66666 12.3335V4.6668C6.66666 4.05116 6.66666 3.74335 6.84232 3.55209C7.01792 3.36084 7.34499 3.33293 7.99906 3.27712C10.6813 3.04828 12.606 2.1735 13.5702 1.60665C13.7672 1.4908 13.8657 1.43288 13.9329 1.47128C14 1.50968 14 1.62113 14 1.84404V10.6668" stroke="#D0D9F9" stroke-linecap="round" stroke-linejoin="round"/>
<path id="Vector_4" d="M6.66666 6.6665C10.5778 6.6665 13.1852 5.11095 14 4.6665" stroke="#D0D9F9" stroke-linecap="round" stroke-linejoin="round"/>
</g>
</svg>
