<svg width="17" height="16" viewBox="0 0 17 16" fill="none" xmlns="http://www.w3.org/2000/svg">
<g id="Traveler">
<path id="Vector" d="M4 5.11128C4 4.69796 4 4.49129 4.04543 4.32174C4.16872 3.86162 4.52812 3.50222 4.98824 3.37893C5.15779 3.3335 5.36446 3.3335 5.77778 3.3335H11.5555C11.9689 3.3335 12.1755 3.3335 12.3451 3.37893C12.8052 3.50222 13.1646 3.86162 13.2879 4.32174C13.3333 4.49129 13.3333 4.69796 13.3333 5.11128C13.3333 5.93792 13.3333 6.35124 13.2425 6.69036C12.9959 7.61056 12.2771 8.32936 11.3569 8.57596C11.0177 8.66683 10.6044 8.66683 9.7778 8.66683H7.55553C6.72891 8.66683 6.31559 8.66683 5.97648 8.57596C5.05624 8.32936 4.33745 7.61056 4.09087 6.69036C4 6.35124 4 5.93792 4 5.11128Z" stroke="#D0D9F9"/>
<path id="Vector_2" d="M12.6667 7.3335C12.9144 7.72276 13.0383 7.91743 13.126 8.12663C13.2041 8.3131 13.2609 8.50783 13.295 8.7071C13.3333 8.93076 13.3333 9.16143 13.3333 9.6229V10.6668C13.3333 12.5524 13.3333 13.4952 12.7475 14.081C12.1617 14.6668 11.2189 14.6668 9.33333 14.6668H8C6.11438 14.6668 5.17157 14.6668 4.58579 14.081C4 13.4952 4 12.5524 4 10.6668V9.6229C4 9.16143 4 8.93076 4.03833 8.7071C4.07249 8.50783 4.1292 8.3131 4.20737 8.12663C4.29509 7.91743 4.41895 7.72276 4.66667 7.3335" stroke="#D0D9F9"/>
<path id="Vector_3" d="M4 13.3333C3.54901 13.3333 3.32352 13.3333 3.13479 13.2813C2.72191 13.1675 2.38712 12.8775 2.22771 12.4955C2.15484 12.321 2.13241 12.1062 2.08753 11.6767L2.0446 11.2657C1.9933 10.7746 1.96764 10.5291 2.0726 10.3473C2.30716 9.94099 2.83416 10.0035 3.23802 10.0035H4" stroke="#D0D9F9"/>
<path id="Vector_4" d="M13.3334 13.3333C13.7844 13.3333 14.0098 13.3333 14.1986 13.2813C14.6114 13.1673 14.9462 12.877 15.1056 12.4947C15.1785 12.3199 15.201 12.1049 15.2458 11.6749L15.2888 11.2636C15.3304 10.865 15.4353 10.3751 15.0473 10.1182C14.8688 10 14.611 10 14.0954 10H13.3334" stroke="#D0D9F9"/>
<path id="Vector_5" d="M6.66669 9.66667V9" stroke="#D0D9F9" stroke-linecap="round" stroke-linejoin="round"/>
<path id="Vector_6" d="M10.6667 9.66667V9" stroke="#D0D9F9" stroke-linecap="round" stroke-linejoin="round"/>
<path id="Vector_7" d="M10.6667 3.3335C10.6667 2.22893 9.77129 1.3335 8.66669 1.3335C7.56209 1.3335 6.66669 2.22893 6.66669 3.3335" stroke="#D0D9F9"/>
</g>
</svg>
